
<svg width="17px" height="16px" viewBox="0 0 17 16" version="1.1" xmlns="http://www.w3.org/2000/svg" xmlns:xlink="http://www.w3.org/1999/xlink">
    <defs>
        <polygon id="path-1" points="0.01094225 0.00600017308 10.9751675 0.00600017308 10.9751675 10.9866553 0.01094225 10.9866553"></polygon>
        <polygon id="path-3" points="0 0 4 0 4 11 0 11"></polygon>
        <polygon id="path-5" points="1.85418474e-06 0.0195036496 3.97455056 0.0195036496 3.97455056 3.9964194 1.85418474e-06 3.9964194"></polygon>
    </defs>
    <g id="Homepage" stroke="none" stroke-width="1" fill="none" fill-rule="evenodd">
        <g transform="translate(-1315.000000, -3868.000000)" id="Footer">
            <g transform="translate(-23.000000, 3581.000000)">
                <g id="Group" transform="translate(1320.000000, 269.000000)">
                    <g id="Page-1-Copy" transform="translate(18.000000, 18.000000)">
                        <g id="Group-3" transform="translate(6.000000, 5.000000)">
                            <mask id="mask-2" fill="white">
                                <use xlink:href="#path-1"></use>
                            </mask>
                            <g id="Clip-2"></g>
                            <path d="M3.59826225,1.74438983 C3.77470225,1.52826576 3.92490725,1.32808213 4.09183225,1.14271985 C4.62769725,0.54768263 5.29820225,0.192707444 6.09157725,0.0691143921 C6.94231725,-0.0634588089 7.77468725,0.00606228288 8.57048225,0.342094541 C9.66429475,0.803958065 10.3199223,1.65311439 10.6759098,2.75338734 C10.8993748,3.44398536 10.9746423,4.15631042 10.9748348,4.87821613 C10.9754398,6.86154615 10.9750548,8.84482159 10.9750548,10.828097 L10.9750548,10.9866553 L7.37667975,10.9866553 C7.37667975,10.9179531 7.37670725,10.8594866 7.37667975,10.8010474 C7.37538725,8.8950995 7.37698225,6.98912432 7.37068475,5.08320372 C7.36906225,4.60256104 7.29307975,4.13253623 7.07274975,3.69542953 C6.75704975,3.06924839 6.16436975,2.79424839 5.46105725,2.83229801 C4.97799225,2.8584469 4.56084475,3.02814169 4.22127475,3.36903251 C3.85530475,3.73639975 3.62050975,4.16840223 3.60807975,4.69806725 C3.60213975,4.95270496 3.59878475,5.20745186 3.59867475,5.46211687 C3.59787725,7.24526328 3.59826225,9.02840968 3.59826225,10.8115288 L3.59826225,10.9851814 L0.01094225,10.9851814 L0.01094225,0.258953102 L0.15451975,0.258953102 C1.24987225,0.258953102 2.34519725,0.260972953 3.44049475,0.256223573 C3.56671975,0.255677667 3.60351475,0.28936005 3.60125975,0.41568263 C3.59347725,0.85134268 3.59826225,1.28724839 3.59826225,1.74438983" id="Fill-1" fill="#FFAA72" mask="url(#mask-2)"></path>
                        </g>
                        <g id="Group-6" transform="translate(0.000000, 5.000000)">
                            <mask id="mask-4" fill="white">
                                <use xlink:href="#path-3"></use>
                            </mask>
                            <g id="Clip-5"></g>
                            <path d="M4,0 L4,10.9968021 L3.84201966,10.9968021 C2.61995102,10.9968021 1.39785169,10.9943395 0.175813747,10.9999921 C0.0293128405,11.0006637 -0.000122393001,10.9584933 3.8169539e-07,10.8341926 C0.00334599218,7.27267951 0.00270142502,3.71113842 0.00267073135,0.149597318 L0.00267073135,0 L4,0 Z" id="Fill-4" fill="#FFAA72" mask="url(#mask-4)"></path>
                        </g>
                        <g id="Group-9">
                            <mask id="mask-6" fill="white">
                                <use xlink:href="#path-5"></use>
                            </mask>
                            <g id="Clip-8"></g>
                            <path d="M0.286989189,3.07811679 C-0.313713514,2.06427737 0.0327189189,0.544861314 1.2875027,0.146613139 C1.97152973,-0.0704963504 2.63993514,-0.0295912409 3.23588108,0.426583942 C3.82123243,0.874642336 4.04128649,1.52410219 3.95731351,2.2769781 C3.87190811,3.04270073 3.47217838,3.57470073 2.79915135,3.83475912 C2.53661081,3.93618978 1.97028649,4.00740146 1.96739459,3.9950219 C1.27088108,3.98164964 0.677367568,3.73694891 0.286989189,3.07811679 Z" id="Fill-7" fill="#FFAA72" mask="url(#mask-6)"></path>
                        </g>
                    </g>
                </g>
            </g>
        </g>
    </g>
</svg>